<?xml version="1.0" standalone="no"?>
<!DOCTYPE svg PUBLIC "-//W3C//DTD SVG 20010904//EN"
 "http://www.w3.org/TR/2001/REC-SVG-20010904/DTD/svg10.dtd">
<svg version="1.0" xmlns="http://www.w3.org/2000/svg"
 width="260.000000pt" height="260.000000pt" viewBox="0 0 260.000000 260.000000"
 preserveAspectRatio="xMidYMid meet">
<metadata>
Created by potrace 1.11, written by Peter Selinger 2001-2013
</metadata>
<g transform="translate(0.000000,260.000000) scale(0.100000,-0.100000)"
fill="#000000" stroke="none">
<path d="M523 2590 c-96 -22 -207 -111 -253 -200 -40 -78 -41 -118 -38 -1130
l3 -975 33 -67 c40 -80 110 -149 190 -186 l57 -27 785 0 785 0 68 34 c109 56
181 146 206 261 7 29 11 397 11 1011 0 924 -1 968 -19 1020 -11 30 -26 68 -35
85 -20 39 -101 116 -147 139 -84 44 -98 45 -874 44 -407 -1 -755 -5 -772 -9z"/>
</g>
</svg>
