<?xml version="1.0" encoding="UTF-8"?>
<svg width="31px" height="30px" viewBox="0 0 31 30" version="1.1" xmlns="http://www.w3.org/2000/svg" xmlns:xlink="http://www.w3.org/1999/xlink">
    <!-- Generator: Sketch 55.2 (78181) - https://sketchapp.com -->
    <title>Group</title>
    <desc>Created with Sketch.</desc>
    <g id="Page-1" stroke="none" stroke-width="1" fill="none" fill-rule="evenodd">
        <g id="Group" transform="translate(2.000000, 0.999972)">
            <g id="trash" transform="translate(0.000000, 0.000028)" stroke="#000000" stroke-linejoin="round" stroke-width="2.66666667">
                <polyline id="Path" stroke-linecap="round" points="0 6.33333333 2.66666667 6.33333333 12.1881048 6.19669019"></polyline>
                <path d="M12.0806788,27.6687668 L5.33333333,27.6666667 C3.860574,27.6666667 2.66666667,26.4727593 2.66666667,25 L2.66666667,6.33333333 M6.66666667,6.33333333 L6.66666667,3.66666667 C6.66666667,2.19390733 7.860574,1 9.33333333,1 L11.7630376,0.978024194" id="Shape" stroke-linecap="round"></path>
                <path d="M9.33333333,13 L9.33333333,21" id="Path"></path>
            </g>
            <g id="clock" transform="translate(2.000000, 1.000028)"></g>
            <polyline id="Path" stroke="#000000" stroke-width="2.66666667" stroke-linecap="round" stroke-linejoin="round" points="18.934879 6.28870375 14.3333333 14.333361 19.6666667 17.0000277"></polyline>
            <path d="M15,1.00027273 C21.9061863,0.989177685 27.6513148,7.35247281 27.6195819,14.3349784 C27.5890896,21.0444932 22.2567103,27.5830749 15.0498716,27.535283" id="Path-2" stroke="#000000" stroke-width="2.67" stroke-linecap="round"></path>
        </g>
    </g>
</svg>