<?xml version="1.0" standalone="no"?>
<!DOCTYPE svg PUBLIC "-//W3C//DTD SVG 20010904//EN"
 "http://www.w3.org/TR/2001/REC-SVG-20010904/DTD/svg10.dtd">
<svg version="1.0" xmlns="http://www.w3.org/2000/svg"
 width="300.000000pt" height="300.000000pt" viewBox="0 0 300.000000 300.000000"
 preserveAspectRatio="xMidYMid meet">
<metadata>
Created by potrace 1.11, written by Peter Selinger 2001-2013
</metadata>
<g transform="translate(0.000000,300.000000) scale(0.100000,-0.100000)"
fill="#000000" stroke="none">
<path d="M1835 2779 c-65 -24 -90 -56 -210 -268 -66 -116 -122 -211 -125 -211
-3 1 -57 91 -121 202 -137 239 -157 260 -254 266 -63 4 -68 3 -157 -48 -381
-215 -402 -234 -396 -350 4 -62 9 -74 121 -267 64 -111 117 -204 117 -207 0
-3 -109 -6 -242 -6 -273 0 -295 -5 -355 -73 -44 -50 -53 -107 -53 -332 0 -241
8 -286 64 -341 56 -56 99 -64 361 -64 118 0 215 -4 215 -8 0 -5 -49 -94 -109
-199 -138 -244 -143 -256 -120 -336 18 -64 61 -100 272 -223 231 -135 267
-145 352 -104 54 26 67 44 205 288 56 100 106 182 109 182 3 -1 60 -96 126
-212 142 -250 161 -270 261 -276 l65 -4 204 117 c268 154 291 177 283 289 -4
57 -13 76 -126 271 -66 115 -119 212 -116 215 3 3 120 7 259 10 l253 5 39 31
c21 16 48 50 61 74 21 42 22 55 22 294 0 234 -1 252 -21 294 -13 26 -38 54
-62 70 l-40 27 -260 3 c-196 2 -258 6 -254 15 2 7 57 104 121 217 113 199 116
207 116 266 0 49 -5 68 -28 105 -25 38 -56 60 -239 167 -224 130 -268 146
-338 121z m256 -256 c100 -60 187 -115 192 -124 7 -12 -23 -73 -130 -260
l-139 -244 -138 0 c-159 0 -139 -12 -226 139 -33 58 -49 97 -46 111 6 24 242
442 264 468 8 9 21 17 28 17 6 0 94 -48 195 -107z m-370 -913 c318 -553 579
-1015 579 -1026 0 -28 3 -26 -200 -144 -116 -67 -182 -100 -198 -98 -21 3
-106 144 -603 1008 -318 553 -579 1015 -579 1027 0 26 1 27 209 150 111 65
164 91 185 90 27 -2 58 -53 607 -1007z m953 114 c14 -13 16 -48 16 -230 0
-201 -1 -215 -20 -234 -19 -19 -33 -20 -272 -20 -139 0 -263 3 -275 6 -16 5
-59 70 -158 241 -74 129 -135 237 -135 238 0 9 101 12 452 13 330 2 378 0 392
-14z m-1630 -232 c75 -131 136 -241 136 -245 0 -4 -188 -7 -418 -7 -312 0
-421 3 -430 12 -17 17 -17 449 0 466 9 9 88 12 294 12 l281 0 137 -238z m290
-504 c92 -157 97 -116 -44 -365 -147 -259 -156 -273 -179 -273 -30 0 -385 214
-389 234 -2 9 58 125 133 257 l136 239 144 0 144 0 55 -92z"/>
</g>
</svg>
