<?xml version="1.0" encoding="UTF-8"?>
<svg width="42px" height="41px" viewBox="0 0 50 50" version="1.1" xmlns="http://www.w3.org/2000/svg" xmlns:xlink="http://www.w3.org/1999/xlink">
    <g id="Page-1" stroke="none" stroke-width="1" fill="none" fill-rule="evenodd">
        <g id="icons" transform="translate(-4, -3)" stroke="#fff">
            <g id="save-item">
                <path d="M41.2872335,12.7276117 L29.7883069,12.7903081 L27.2375412,17.3851541 L29.7064808,21.6614827 L41.4403118,22.0040892 L41.2872335,12.7276117 Z" id="Rectangle-Copy-8" transform="translate(34.305930, 17.372037) rotate(-60.000000) translate(-34.305930, -17.372037) "></path>
                <path d="M18.187442,34.0982957 L17.56609,34.4570335 L14.9405857,39.1865106 L17.4056535,43.4561333 L29.1519238,43.5234076 L29.1519238,34.5079474 L18.187442,34.0982957 Z" id="Rectangle-Copy-10" transform="translate(22.008975, 38.809773) rotate(120.000000) translate(-22.008975, -38.809773) "></path>
                <path d="M8.80901699,23.5 L13.309017,32.5 L25,32.5 L25,23.5 L8.80901699,23.5 Z" id="Rectangle-Copy-6" transform="translate(16.750000, 28.000000) rotate(180.000000) translate(-16.750000, -28.000000) "></path>
                <path d="M30.8456356,23.5 L35.7956356,32.5 L47.5,32.5 L47.5,23.5 Z" id="Rectangle-Copy-9"></path>
                <rect id="Rectangle-Copy-7" transform="translate(28.000000, 28.000000) rotate(60.000000) translate(-28.000000, -28.000000) " x="8.5" y="23.5" width="39" height="9"></rect>
            </g>
        </g>
    </g>
</svg>